# xmcd
#
# Track frame offsets:
#	150
#	14459
#	33413
#	49397
#	69861
#	87407
#	105408
#	120264
#	124826
#	139314
#	155172
#	170386
#	187719
#	210966
#
# Disc length: 3060 seconds
#
# Revision: 0
# Processed by: cddbd v1.5.2PL0 Copyright (c) Steve Scherf et al.
# Submitted via: EasyCDDAExtractor 11.9.9.666
#
DISCID=b40bf20e
DTITLE=Badi - The Departure
DYEAR=2008
DGENRE=Rap
TTITLE0=The Departure
TTITLE1=Fate of the World
TTITLE2=Be OK (feat. Koto the Wonderman)
TTITLE3=I Don't Know
TTITLE4=Sister (feat. Donovan)
TTITLE5=SideWalkin
TTITLE6=The Fire
TTITLE7=Say What
TTITLE8=Ain't Sayin Nothin
TTITLE9=Next Movement
TTITLE10=In My Soul (feat. Donovan)
TTITLE11=Twentyone
TTITLE12=Full Circle
TTITLE13=SuperVision
EXTD=
EXTT0=
EXTT1=
EXTT2=
EXTT3=
EXTT4=
EXTT5=
EXTT6=
EXTT7=
EXTT8=
EXTT9=
EXTT10=
EXTT11=
EXTT12=
EXTT13=
PLAYORDER=
